<mxfile host="Electron" agent="Mozilla/5.0 (X11; Linux x86_64) AppleWebKit/537.36 (KHTML, like Gecko) draw.io/25.0.2 Chrome/128.0.6613.186 Electron/32.2.5 Safari/537.36" version="25.0.2">
  <diagram name="Page-1" id="-H_mtQnk-PTXWXPvYvuk">
    <mxGraphModel dx="1430" dy="873" grid="1" gridSize="10" guides="1" tooltips="1" connect="1" arrows="1" fold="1" page="1" pageScale="1" pageWidth="1169" pageHeight="827" math="0" shadow="0">
      <root>
        <mxCell id="0" />
        <mxCell id="1" parent="0" />
        <mxCell id="zA23MoTUsTF4_91t8viU-2" value="MongoDB" style="shape=cylinder3;whiteSpace=wrap;html=1;boundedLbl=1;backgroundOutline=1;size=15;strokeColor=#0000FF;strokeWidth=2;" parent="1" vertex="1">
          <mxGeometry x="570" y="360" width="60" height="80" as="geometry" />
        </mxCell>
        <mxCell id="zA23MoTUsTF4_91t8viU-3" value="pymongo-api" style="rounded=1;whiteSpace=wrap;html=1;" parent="1" vertex="1">
          <mxGeometry x="370" y="370" width="120" height="60" as="geometry" />
        </mxCell>
        <mxCell id="zA23MoTUsTF4_91t8viU-4" style="edgeStyle=orthogonalEdgeStyle;rounded=0;orthogonalLoop=1;jettySize=auto;html=1;exitX=1;exitY=0.5;exitDx=0;exitDy=0;entryX=0;entryY=0.5;entryDx=0;entryDy=0;entryPerimeter=0;" parent="1" source="zA23MoTUsTF4_91t8viU-3" target="zA23MoTUsTF4_91t8viU-2" edge="1">
          <mxGeometry relative="1" as="geometry" />
        </mxCell>
        <mxCell id="mKw6a-kfwTMlM3zWuT2E-1" value="MongoDB" style="shape=cylinder3;whiteSpace=wrap;html=1;boundedLbl=1;backgroundOutline=1;size=15;strokeColor=#FF3333;strokeWidth=2;" parent="1" vertex="1">
          <mxGeometry x="570" y="220" width="60" height="80" as="geometry" />
        </mxCell>
        <mxCell id="mKw6a-kfwTMlM3zWuT2E-2" value="MongoDB" style="shape=cylinder3;whiteSpace=wrap;html=1;boundedLbl=1;backgroundOutline=1;size=15;strokeColor=#009900;strokeWidth=2;" parent="1" vertex="1">
          <mxGeometry x="690" y="310" width="60" height="80" as="geometry" />
        </mxCell>
        <mxCell id="mKw6a-kfwTMlM3zWuT2E-3" value="MongoDB" style="shape=cylinder3;whiteSpace=wrap;html=1;boundedLbl=1;backgroundOutline=1;size=15;strokeColor=#FFD966;strokeWidth=2;" parent="1" vertex="1">
          <mxGeometry x="690" y="425" width="60" height="80" as="geometry" />
        </mxCell>
        <mxCell id="mKw6a-kfwTMlM3zWuT2E-4" value="&lt;font style=&quot;font-size: 14px;&quot;&gt;Роутер&lt;/font&gt;" style="text;html=1;align=center;verticalAlign=middle;whiteSpace=wrap;rounded=0;" parent="1" vertex="1">
          <mxGeometry x="570" y="480" width="60" height="30" as="geometry" />
        </mxCell>
        <mxCell id="mKw6a-kfwTMlM3zWuT2E-5" value="&lt;font style=&quot;font-size: 14px;&quot;&gt;Конфигурационный&amp;nbsp;&lt;/font&gt;&lt;div&gt;&lt;font style=&quot;font-size: 14px;&quot;&gt;сервер&lt;/font&gt;&lt;/div&gt;" style="text;html=1;align=center;verticalAlign=middle;whiteSpace=wrap;rounded=0;" parent="1" vertex="1">
          <mxGeometry x="450" y="120" width="170" height="30" as="geometry" />
        </mxCell>
        <mxCell id="mKw6a-kfwTMlM3zWuT2E-6" value="&lt;font style=&quot;font-size: 16px;&quot;&gt;&lt;b&gt;Задание 2. Реализация хэшированного шардирования&lt;/b&gt;&lt;/font&gt;&lt;div&gt;&lt;br&gt;&lt;/div&gt;" style="text;html=1;align=center;verticalAlign=middle;whiteSpace=wrap;rounded=0;" parent="1" vertex="1">
          <mxGeometry x="295" y="60" width="580" height="30" as="geometry" />
        </mxCell>
        <mxCell id="mKw6a-kfwTMlM3zWuT2E-7" value="" style="endArrow=classic;startArrow=classic;html=1;rounded=0;entryX=0;entryY=0.5;entryDx=0;entryDy=0;entryPerimeter=0;exitX=1;exitY=0.5;exitDx=0;exitDy=0;exitPerimeter=0;" parent="1" source="zA23MoTUsTF4_91t8viU-2" target="mKw6a-kfwTMlM3zWuT2E-2" edge="1">
          <mxGeometry width="50" height="50" relative="1" as="geometry">
            <mxPoint x="630" y="390" as="sourcePoint" />
            <mxPoint x="680" y="340" as="targetPoint" />
          </mxGeometry>
        </mxCell>
        <mxCell id="mKw6a-kfwTMlM3zWuT2E-8" value="" style="endArrow=classic;startArrow=classic;html=1;rounded=0;entryX=0;entryY=0.5;entryDx=0;entryDy=0;entryPerimeter=0;" parent="1" target="mKw6a-kfwTMlM3zWuT2E-3" edge="1">
          <mxGeometry width="50" height="50" relative="1" as="geometry">
            <mxPoint x="630" y="400" as="sourcePoint" />
            <mxPoint x="680" y="350" as="targetPoint" />
          </mxGeometry>
        </mxCell>
        <mxCell id="mKw6a-kfwTMlM3zWuT2E-9" value="&lt;font style=&quot;font-size: 14px;&quot;&gt;Шард 1&lt;/font&gt;" style="text;html=1;align=center;verticalAlign=middle;resizable=0;points=[];autosize=1;strokeColor=none;fillColor=none;" parent="1" vertex="1">
          <mxGeometry x="680" y="260" width="80" height="30" as="geometry" />
        </mxCell>
        <mxCell id="mKw6a-kfwTMlM3zWuT2E-10" value="&lt;font style=&quot;font-size: 14px;&quot;&gt;Шард 2&lt;/font&gt;" style="text;html=1;align=center;verticalAlign=middle;resizable=0;points=[];autosize=1;strokeColor=none;fillColor=none;" parent="1" vertex="1">
          <mxGeometry x="680" y="530" width="80" height="30" as="geometry" />
        </mxCell>
        <mxCell id="mKw6a-kfwTMlM3zWuT2E-12" value="" style="endArrow=classic;startArrow=classic;html=1;rounded=0;entryX=0.5;entryY=1;entryDx=0;entryDy=0;entryPerimeter=0;" parent="1" target="mKw6a-kfwTMlM3zWuT2E-1" edge="1">
          <mxGeometry width="50" height="50" relative="1" as="geometry">
            <mxPoint x="600" y="360" as="sourcePoint" />
            <mxPoint x="650" y="310" as="targetPoint" />
          </mxGeometry>
        </mxCell>
        <mxCell id="mKw6a-kfwTMlM3zWuT2E-14" value="" style="endArrow=classic;html=1;rounded=0;exitX=1;exitY=0.5;exitDx=0;exitDy=0;exitPerimeter=0;entryX=1;entryY=0.5;entryDx=0;entryDy=0;entryPerimeter=0;" parent="1" source="mKw6a-kfwTMlM3zWuT2E-3" target="mKw6a-kfwTMlM3zWuT2E-1" edge="1">
          <mxGeometry width="50" height="50" relative="1" as="geometry">
            <mxPoint x="760" y="470" as="sourcePoint" />
            <mxPoint x="800" y="210" as="targetPoint" />
            <Array as="points">
              <mxPoint x="800" y="465" />
              <mxPoint x="800" y="260" />
            </Array>
          </mxGeometry>
        </mxCell>
        <mxCell id="mKw6a-kfwTMlM3zWuT2E-15" value="" style="endArrow=classic;html=1;rounded=0;" parent="1" edge="1">
          <mxGeometry width="50" height="50" relative="1" as="geometry">
            <mxPoint x="750" y="350" as="sourcePoint" />
            <mxPoint x="800" y="350" as="targetPoint" />
          </mxGeometry>
        </mxCell>
        <mxCell id="qtGO_sdQdR8mOw-mpESe-1" value="&lt;font color=&quot;#0000cc&quot;&gt;&lt;b style=&quot;&quot;&gt;router1:27020&lt;/b&gt;&lt;/font&gt;" style="text;html=1;align=center;verticalAlign=middle;resizable=0;points=[];autosize=1;strokeColor=none;fillColor=none;" parent="1" vertex="1">
          <mxGeometry x="540" y="450" width="120" height="30" as="geometry" />
        </mxCell>
        <mxCell id="qtGO_sdQdR8mOw-mpESe-2" value="&lt;font color=&quot;#ff0000&quot;&gt;&lt;b style=&quot;&quot;&gt;configSrv1_3&lt;/b&gt;&lt;/font&gt;&lt;div&gt;&lt;font color=&quot;#ff0000&quot;&gt;&lt;b style=&quot;&quot;&gt;:27017&lt;/b&gt;&lt;/font&gt;&lt;/div&gt;" style="text;html=1;align=center;verticalAlign=middle;resizable=0;points=[];autosize=1;strokeColor=none;fillColor=none;" parent="1" vertex="1">
          <mxGeometry x="545" y="175" width="110" height="40" as="geometry" />
        </mxCell>
        <mxCell id="qtGO_sdQdR8mOw-mpESe-3" value="&lt;font color=&quot;#cccc00&quot;&gt;&lt;b&gt;shard1_2:27019&lt;/b&gt;&lt;/font&gt;" style="text;html=1;align=center;verticalAlign=middle;resizable=0;points=[];autosize=1;strokeColor=none;fillColor=none;" parent="1" vertex="1">
          <mxGeometry x="655" y="505" width="130" height="30" as="geometry" />
        </mxCell>
        <mxCell id="qtGO_sdQdR8mOw-mpESe-4" value="&lt;font color=&quot;#006600&quot;&gt;&lt;b&gt;shard1_2:27018&lt;/b&gt;&lt;/font&gt;" style="text;html=1;align=center;verticalAlign=middle;resizable=0;points=[];autosize=1;strokeColor=none;fillColor=none;" parent="1" vertex="1">
          <mxGeometry x="655" y="280" width="130" height="30" as="geometry" />
        </mxCell>
        <mxCell id="3sduJD41bYWTauFdnAcO-1" value="MongoDB" style="shape=cylinder3;whiteSpace=wrap;html=1;boundedLbl=1;backgroundOutline=1;size=15;strokeColor=#FF3333;strokeWidth=2;" parent="1" vertex="1">
          <mxGeometry x="470" y="220" width="60" height="80" as="geometry" />
        </mxCell>
        <mxCell id="3sduJD41bYWTauFdnAcO-2" value="MongoDB" style="shape=cylinder3;whiteSpace=wrap;html=1;boundedLbl=1;backgroundOutline=1;size=15;strokeColor=#FF3333;strokeWidth=2;" parent="1" vertex="1">
          <mxGeometry x="370" y="220" width="60" height="80" as="geometry" />
        </mxCell>
        <mxCell id="3sduJD41bYWTauFdnAcO-3" value="" style="endArrow=classic;startArrow=classic;html=1;rounded=0;entryX=0;entryY=0.5;entryDx=0;entryDy=0;entryPerimeter=0;exitX=1;exitY=0.5;exitDx=0;exitDy=0;exitPerimeter=0;" parent="1" source="3sduJD41bYWTauFdnAcO-2" target="3sduJD41bYWTauFdnAcO-1" edge="1">
          <mxGeometry width="50" height="50" relative="1" as="geometry">
            <mxPoint x="430" y="270" as="sourcePoint" />
            <mxPoint x="480" y="220" as="targetPoint" />
          </mxGeometry>
        </mxCell>
        <mxCell id="3sduJD41bYWTauFdnAcO-4" value="" style="endArrow=classic;startArrow=classic;html=1;rounded=0;entryX=0;entryY=0.5;entryDx=0;entryDy=0;entryPerimeter=0;" parent="1" target="mKw6a-kfwTMlM3zWuT2E-1" edge="1">
          <mxGeometry width="50" height="50" relative="1" as="geometry">
            <mxPoint x="530" y="260" as="sourcePoint" />
            <mxPoint x="580" y="210" as="targetPoint" />
          </mxGeometry>
        </mxCell>
        <mxCell id="3sduJD41bYWTauFdnAcO-5" value="&lt;font color=&quot;#ff0000&quot;&gt;&lt;b style=&quot;&quot;&gt;configSrv1_2&lt;/b&gt;&lt;/font&gt;&lt;div&gt;&lt;font color=&quot;#ff0000&quot;&gt;&lt;b style=&quot;&quot;&gt;:27016&lt;/b&gt;&lt;/font&gt;&lt;/div&gt;" style="text;html=1;align=center;verticalAlign=middle;resizable=0;points=[];autosize=1;strokeColor=none;fillColor=none;" parent="1" vertex="1">
          <mxGeometry x="445" y="175" width="110" height="40" as="geometry" />
        </mxCell>
        <mxCell id="3sduJD41bYWTauFdnAcO-6" value="&lt;font color=&quot;#ff0000&quot;&gt;&lt;b style=&quot;&quot;&gt;configSrv1_1&lt;/b&gt;&lt;/font&gt;&lt;div&gt;&lt;font color=&quot;#ff0000&quot;&gt;&lt;b style=&quot;&quot;&gt;:27015&lt;/b&gt;&lt;/font&gt;&lt;/div&gt;" style="text;html=1;align=center;verticalAlign=middle;resizable=0;points=[];autosize=1;strokeColor=none;fillColor=none;" parent="1" vertex="1">
          <mxGeometry x="345" y="175" width="110" height="40" as="geometry" />
        </mxCell>
      </root>
    </mxGraphModel>
  </diagram>
</mxfile>
